<svg width="3000" height="3000" viewBox="0 0 3000 3000" fill="none" xmlns="http://www.w3.org/2000/svg">
<rect width="3000" height="3000" fill="white"/>
<path d="M1709.1 1179.23C1718.04 1180.85 1719.98 1187.1 1717.74 1195.45C1712.93 1213.57 1709.39 1232.22 1704.34 1250.04C1681.81 1329.36 1657.2 1421.88 1637.54 1517.7C1613.12 1636.84 1603.49 1759.37 1608.65 1885.22C1612.64 1982.26 1623.39 2085.23 1640.87 2194.16C1662.57 2329.29 1689.92 2459 1722.9 2583.31" stroke="#37577F" stroke-width="2"/>
<path d="M1168.06 2567.32C1175.93 2523.06 1184.07 2478.9 1192.48 2434.85C1195.22 2420.48 1196.55 2407.63 1199.45 2394.15C1200.54 2389.07 1202.4 2378.93 1205.04 2363.72C1227.99 2231.24 1245.97 2096.32 1259.01 1958.98C1265.26 1893.3 1270.39 1835.37 1274.44 1785.22C1280.66 1707.95 1285.85 1650.06 1290.03 1611.52C1300.64 1513.15 1312.96 1420.18 1326.92 1332.61C1330.41 1310.66 1333.76 1291.51 1336.98 1275.12C1343.25 1243.02 1347.22 1223.97 1348.84 1217.98C1350.94 1210.27 1355.7 1207.72 1363.1 1210.3" stroke="#37577F" stroke-width="2"/>
<path d="M1363.1 1210.3C1368.1 1215.22 1365.79 1222.27 1365.31 1227.35C1365.23 1228.17 1365.52 1229.02 1366.05 1229.66C1378.37 1244.05 1393.35 1255.54 1410.93 1264.16C1466.37 1291.35 1532.1 1292.25 1590.99 1276.96C1629.08 1267.06 1663 1248.02 1692.74 1219.79C1693.83 1218.76 1694.6 1217.48 1695.03 1216.04L1700.8 1195.88C1701.04 1195.05 1700.51 1194.18 1699.66 1194.04C1682.87 1191.22 1667.34 1185.05 1653 1175.56C1630.44 1160.61 1621.64 1129.16 1616.66 1104.88C1605.52 1050.32 1599.26 993.977 1597.86 935.854C1597.83 934.551 1598.04 933.247 1598.47 932.024L1614.03 887.786C1614.59 886.217 1616.5 885.658 1617.83 886.643C1622.04 889.755 1627.01 894.596 1631.82 895.82C1645.36 899.305 1659.68 889.382 1654.22 875.177C1651.48 868.048 1645.58 862.143 1637.17 864.138C1636.32 864.324 1635.52 864.697 1634.83 865.175C1632.57 866.745 1630.47 871.507 1626.37 870.895C1624.54 870.629 1622.73 870.017 1620.94 869.059C1618.82 867.942 1617.89 865.229 1618.68 862.595C1625.2 841.501 1652.47 844.453 1663.67 858.978C1664.44 859.962 1665.82 860.175 1666.83 859.483C1691.22 842.538 1704.15 819.156 1705.59 789.283C1706.41 772.099 1702.32 757.122 1693.35 744.354C1674.86 718.046 1642.2 715.545 1619.4 737.677C1618.26 738.794 1614.91 743.104 1609.35 750.605C1608.81 751.323 1608.07 751.855 1607.25 752.175C1603.92 753.372 1600.38 752.68 1597.11 750.366C1595.51 749.222 1594.18 748.796 1593.09 749.115C1580.38 752.84 1566.71 756.67 1552.07 760.634C1551.25 760.846 1550.74 761.698 1550.93 762.549C1555.48 783.803 1554.92 802.716 1549.28 819.236C1535.26 860.201 1500.15 884.568 1457.38 881.056C1412.79 877.359 1376.53 840.889 1373.56 796.199C1373.48 794.976 1372.73 793.885 1371.61 793.379C1356.53 786.41 1343.55 788.299 1332.67 799.072C1332 799.737 1331.63 800.668 1331.69 801.626L1332.24 810.005C1332.35 811.654 1334.32 812.426 1335.52 811.309C1337.86 809.127 1339.96 807.079 1343.04 809.287C1346.1 811.495 1347.25 815.006 1346.45 819.821C1343.84 835.436 1338.87 849.002 1331.55 860.547C1324.32 871.985 1334.77 882.785 1345.41 884.887C1350.41 885.871 1366.03 883.903 1365.15 894.41C1364.38 903.481 1354 904.119 1346.9 903.241C1335.52 901.858 1321.47 895.048 1316.95 883.956C1316.39 882.599 1315.96 881.695 1315.67 881.269C1315.17 880.551 1314.13 880.524 1313.57 881.216C1295.53 904.013 1264.36 918.484 1234.59 912.392C1233.53 912.179 1232.62 913.19 1232.97 914.228C1248.24 960.939 1273.83 1004.41 1313.84 1033.24C1350.41 1059.63 1390.34 1069.36 1433.59 1062.48C1455.57 1058.96 1481.93 1048.67 1502.04 1034.65C1514.09 1026.27 1521.22 1021.43 1523.4 1020.13C1526.8 1018.08 1531.19 1020.15 1531.8 1024.06L1531.86 1024.41C1532.66 1029.36 1530.82 1034.36 1527.04 1037.66C1492.6 1067.53 1453.04 1082.82 1408.43 1083.52C1407.34 1083.54 1406.51 1084.5 1406.65 1085.56C1410.53 1113.6 1414.15 1143.42 1409.84 1170.58C1408.38 1179.81 1404.73 1186.54 1398.88 1190.82C1390.07 1197.26 1379.57 1200 1367.36 1199.07" stroke="#808080" stroke-width="2"/>
<path d="M1367.35 1199.07C1362.73 1195.08 1362.49 1190.43 1366.64 1185.08" stroke="#37577F" stroke-width="2"/>
<path d="M1363.1 1210.3C1363.76 1204.36 1365.2 1200.61 1367.36 1199.07" stroke="#B6D7FF" stroke-width="2"/>
<path d="M989.858 2537.63C983.793 2533.11 977.435 2531.57 970.812 2533" stroke="#37577F" stroke-width="2"/>
<path d="M966.559 2218.55C986.376 2198.82 1002.6 2176.34 1015.24 2151.09C1065.54 2050.62 1081.1 1935.12 1085.33 1823.69C1086.26 1799.22 1083.44 1770.75 1083.42 1747.72C1083.42 1746.41 1084.48 1745.32 1085.78 1745.3C1102.04 1744.9 1121.56 1743.19 1144.36 1740.19C1155.19 1738.75 1164.58 1733.96 1172.5 1725.8C1188.76 1709.07 1187.96 1686.69 1181.28 1665.92C1173.22 1640.78 1164.2 1611.79 1154.23 1578.91C1144.79 1547.76 1135.79 1518.73 1127.2 1491.81C1107.81 1431.11 1088.74 1370.81 1069.98 1310.87" stroke="#37577F" stroke-width="2"/>
<path d="M2064.09 1352.82C2060.42 1353.17 2055.18 1354.05 2048.34 1355.51C2020.99 1361.39 2014.93 1381 2014.1 1407.54C2013.09 1441.59 2009.24 1474.05 2007.67 1506.07C2005.3 1554.78 2001.47 1602.26 1999 1653.63C1997.75 1680.02 1990.54 1710.29 2016.61 1726.73C2031.1 1735.88 2049.96 1738.27 2066.67 1737C2082.36 1735.8 2095.32 1734.58 2105.56 1733.35C2106.54 1733.25 2107.21 1734.31 2106.68 1735.13C2093.85 1755.4 2089.31 1785.57 2088.96 1808.66C2088.93 1809.78 2088.27 1810.79 2087.23 1811.21C2076.24 1815.76 2065.98 1823.32 2056.48 1833.88C2049.72 1841.41 2043.87 1852.68 2038.9 1867.71C2031.9 1888.99 2027.09 1906.58 2024.51 1920.49C2024.4 1921 2022.24 1933.34 2018.04 1957.52C2015.62 1971.35 2014.64 1983.8 2015.09 1994.89C2015.46 2004.15 2024.59 2007.74 2030.04 1999.57C2030.41 1998.99 2030.68 1998.3 2030.78 1997.61C2034.8 1968 2040.68 1935.28 2048.39 1899.4C2051.56 1884.76 2056.16 1870.37 2062.23 1856.25C2067.31 1844.44 2075.15 1835.31 2085.74 1828.9C2086.75 1828.29 2087.98 1829.25 2087.63 1830.37C2084.6 1840.29 2085.1 1849.49 2084.33 1861.2C2084.25 1862.5 2083.83 1863.72 2083.13 1864.81C2080.13 1869.47 2079.46 1874.76 2081.11 1880.75C2085.55 1896.79 2095.53 1906.74 2109.26 1916.29C2126.87 1928.52 2154.58 1932.25 2175.63 1930.92C2209.44 1928.76 2239.36 1917.56 2265.38 1897.27C2270.99 1892.88 2275.46 1887.56 2278.78 1881.31C2280.97 1877.24 2278.2 1870.77 2282.75 1867.87C2292.56 1861.57 2301.08 1854.79 2308.31 1847.55C2312.86 1843.03 2317.62 1838.43 2322.62 1833.74" stroke="#37577F" stroke-width="2"/>
<path d="M2100.13 2320.86C2104.89 2315.89 2103.86 2311.26 2097.02 2307C2072.25 2291.55 2052.28 2274.58 2037.03 2256.03C2025.62 2242.15 2011.82 2224.51 2001.76 2206.9C1992.64 2190.92 1984.63 2175.99 1977.71 2162.13C1971.62 2149.95 1965.18 2134.25 1958.45 2115.08C1941.88 2067.91 1929.54 2022.48 1921.43 1978.72C1907.83 1905.73 1898.55 1831.03 1893.55 1754.66C1891.58 1724.6 1889.85 1697.63 1888.39 1673.77C1888.12 1669.3 1884.13 1665.97 1879.69 1666.53L1879.37 1666.58C1874.74 1667.17 1871.28 1671.16 1871.42 1675.81C1873.28 1743.99 1878.76 1814.64 1887.88 1887.82C1895.14 1946.27 1906.29 2003.4 1921.32 2059.29C1933.98 2106.48 1949.81 2149.12 1968.78 2187.24C1981.97 2213.77 1998.65 2239.44 2018.84 2264.23" stroke="#37577F" stroke-width="2"/>
<path d="M1992.53 2541.78C1982.82 2542.18 1976.31 2544.07 1972.98 2547.48" stroke="#37577F" stroke-width="2"/>
<path d="M918.597 2249.25C910.244 2244.52 914.66 2237.81 920.219 2233.69C948.656 2212.6 971.134 2188.1 989.648 2156.57C1005.69 2129.25 1018.51 2099.43 1028.11 2067.06C1040.27 2026.07 1048.91 1989.76 1054.02 1958.13C1060.73 1916.66 1064.96 1869.82 1066.68 1817.57C1067.38 1796.37 1064.88 1769.32 1064.72 1747.9C1064.72 1747.18 1064.13 1746.63 1063.41 1746.68L983.317 1751.92C982.466 1751.97 981.827 1752.72 981.934 1753.57C985.339 1780.3 981.029 1804.56 969.032 1826.32C968.314 1827.6 968.314 1829.14 969.005 1830.42C971.16 1834.33 974.858 1837.92 976.64 1842.39C979.087 1848.53 982.013 1854.44 985.445 1860.13C986.057 1861.17 986.482 1862.31 986.722 1863.54C988.291 1871.65 989.063 1879.34 989.036 1886.55C988.956 1920.01 985.525 1954.01 978.741 1988.56C977.199 1996.33 965.893 1999.04 963.1 1989.15C962.941 1988.54 962.861 1987.92 962.887 1987.29C963.712 1969.49 967.649 1950.44 968.766 1932.38C969.644 1918.39 970.442 1903.78 971.213 1888.54C972.065 1871.84 968.234 1856.81 959.695 1843.45C958.791 1842.04 956.742 1842.02 955.785 1843.37C953.151 1847.07 951.13 1851.38 949.72 1856.3C949.321 1857.69 949.773 1859.15 950.89 1860.08C954.96 1863.46 955.412 1867.69 952.3 1872.82C939.399 1894 906.094 1895.91 884.893 1889.77C865.98 1884.31 849.993 1876.15 836.905 1865.32C811.953 1844.68 793.918 1820.58 787.986 1789.4C786.629 1782.24 788.997 1777.3 795.062 1774.5C796.445 1773.87 797.243 1772.35 796.977 1770.83L783.384 1693.61" stroke="#37577F" stroke-width="2"/>
<path d="M1362.7 1209.98C1363.37 1204.06 1364.8 1200.31 1366.96 1198.77C1379.17 1199.7 1389.69 1196.97 1398.5 1190.55C1404.35 1186.27 1408 1179.56 1409.46 1170.35C1413.77 1143.25 1410.15 1113.49 1406.27 1085.51C1406.13 1084.45 1406.96 1083.5 1408.05 1083.47C1452.68 1082.78 1492.25 1067.52 1526.71 1037.71C1530.49 1034.42 1532.33 1029.43 1531.53 1024.49L1531.48 1024.15C1530.87 1020.24 1526.47 1018.17 1523.07 1020.22C1520.89 1021.52 1513.75 1026.35 1501.7 1034.71C1481.58 1048.7 1455.21 1058.97 1433.22 1062.47C1389.95 1069.35 1350.01 1059.63 1313.42 1033.3C1273.39 1004.53 1247.79 961.159 1232.51 914.549C1232.17 913.514 1233.07 912.505 1234.14 912.718C1263.92 918.796 1295.11 904.356 1313.15 881.609C1313.71 880.919 1314.75 880.945 1315.25 881.662C1315.54 882.087 1315.97 882.989 1316.53 884.343C1321.05 895.411 1335.1 902.206 1346.49 903.587C1353.6 904.463 1363.98 903.826 1364.75 894.774C1365.63 884.29 1350.01 886.254 1345 885.272C1334.36 883.175 1323.9 872.398 1331.14 860.985C1338.46 849.465 1343.43 835.928 1346.04 820.347C1346.84 815.543 1345.7 812.039 1342.64 809.836C1339.55 807.633 1337.45 809.677 1335.1 811.853C1333.91 812.968 1331.94 812.198 1331.83 810.553L1331.27 802.191C1331.22 801.236 1331.59 800.307 1332.26 799.643C1343.14 788.893 1356.13 787.009 1371.22 793.963C1372.34 794.467 1373.08 795.556 1373.16 796.777C1376.14 841.369 1412.41 877.76 1457.02 881.45C1499.81 884.953 1534.94 860.64 1548.96 819.763C1554.6 803.28 1555.16 784.407 1550.61 763.199C1550.43 762.35 1550.93 761.501 1551.76 761.288C1566.39 757.333 1580.07 753.511 1592.79 749.795C1593.88 749.477 1595.21 749.901 1596.81 751.043C1600.08 753.352 1603.62 754.042 1606.95 752.848C1607.77 752.529 1608.52 751.998 1609.05 751.281C1614.61 743.796 1617.97 739.496 1619.11 738.381C1641.92 716.297 1674.6 718.793 1693.09 745.044C1702.06 757.785 1706.16 772.728 1705.34 789.875C1703.9 819.683 1690.97 843.015 1666.56 859.923C1665.55 860.613 1664.17 860.401 1663.39 859.419C1652.19 844.926 1624.91 841.98 1618.39 863.029C1617.59 865.656 1618.53 868.364 1620.66 869.479C1622.44 870.434 1624.25 871.045 1626.08 871.31C1630.18 871.921 1632.28 867.169 1634.55 865.603C1635.24 865.126 1636.04 864.754 1636.89 864.568C1645.3 862.577 1651.21 868.47 1653.95 875.584C1659.4 889.758 1645.09 899.658 1631.54 896.181C1626.72 894.96 1621.75 890.129 1617.54 887.024C1616.21 886.042 1614.29 886.599 1613.74 888.165L1598.17 932.307C1597.74 933.528 1597.53 934.828 1597.56 936.129C1598.97 994.126 1605.22 1050.34 1616.37 1104.78C1621.35 1129.02 1630.16 1160.39 1652.72 1175.31C1667.07 1184.79 1682.61 1190.94 1699.4 1193.76C1700.25 1193.89 1700.79 1194.77 1700.55 1195.59L1694.77 1215.71C1694.34 1217.14 1693.57 1218.42 1692.48 1219.45C1662.73 1247.61 1628.8 1266.62 1590.69 1276.49C1531.77 1291.76 1466.01 1290.85 1410.55 1263.73C1392.96 1255.13 1377.98 1243.66 1365.66 1229.3C1365.12 1228.66 1364.83 1227.81 1364.91 1226.99C1365.39 1221.92 1367.71 1214.89 1362.7 1209.98Z" fill="white"/>
<path d="M734.49 605.178C703.367 593.899 679.16 566.606 668.201 534.286C654.794 494.704 657.028 455.521 674.904 416.736C699.51 363.295 756.862 323.287 817.06 335.071C822.54 336.135 830.121 338.556 839.83 342.307C852.998 347.441 860.366 350.367 861.909 351.085C913.568 375.186 941.952 422.402 939.584 479.914C937.988 518.405 923.49 552.082 896.065 580.997C868.666 609.886 834.962 623.532 794.981 621.963C786.283 621.617 778.967 620.473 772.982 618.558C762.794 615.286 749.972 610.817 734.49 605.178Z" fill="black"/>
<path d="M2104.73 631.699C2084.44 632.683 2059.81 627.017 2043.9 617.813C2036 613.238 2025.22 606.721 2011.58 598.235C1989.71 584.642 1974.55 565.037 1966.09 539.42C1947.04 481.802 1972.39 417.641 2015.81 379.761C2044.99 354.331 2078.35 342.466 2115.88 344.142C2125.94 344.595 2138.01 347.574 2152.11 353.08C2165.09 358.134 2175.55 367.897 2187.46 375.452C2190.6 377.447 2195.02 380.932 2200.68 385.959C2234.36 415.699 2248.78 459.857 2241.84 504.28C2231.22 572.272 2174.96 628.321 2104.73 631.699Z" fill="black"/>
<path d="M1709.09 1179.23C1718.03 1180.85 1719.97 1187.1 1717.74 1195.45C1712.92 1213.57 1709.39 1232.22 1704.33 1250.04C1681.8 1329.36 1657.2 1421.88 1637.54 1517.7C1613.12 1636.84 1603.49 1759.37 1608.65 1885.22C1612.64 1982.26 1623.39 2085.23 1640.86 2194.16C1662.57 2329.29 1689.91 2459 1722.9 2583.31C1720.69 2584.77 1718.8 2585.94 1717.23 2586.76C1711.49 2589.77 1706.65 2585.25 1705 2580.03C1688.4 2526.86 1675.79 2469.99 1663.42 2415.69C1663.21 2414.84 1662.36 2414.28 1661.5 2414.47C1515.57 2444.1 1361.53 2444.9 1216.18 2411.89C1215.46 2411.73 1214.74 2412.21 1214.63 2412.93C1207.05 2458.18 1198.75 2502.2 1189.74 2545.05C1187.55 2555.32 1186.36 2571.44 1174.92 2571.84C1173.38 2571.89 1171.09 2570.38 1168.06 2567.32C1175.93 2523.06 1184.07 2478.9 1192.48 2434.85C1195.22 2420.48 1196.55 2407.63 1199.45 2394.15C1200.54 2389.07 1202.4 2378.93 1205.03 2363.72C1227.99 2231.24 1245.97 2096.32 1259.01 1958.98C1265.26 1893.3 1270.39 1835.37 1274.43 1785.22C1280.66 1707.95 1285.85 1650.06 1290.02 1611.52C1300.64 1513.15 1312.95 1420.18 1326.92 1332.61C1330.4 1310.66 1333.75 1291.51 1336.97 1275.12C1343.25 1243.02 1347.21 1223.97 1348.84 1217.98C1350.94 1210.27 1355.7 1207.72 1363.09 1210.3C1368.1 1215.22 1365.78 1222.27 1365.3 1227.35C1365.22 1228.17 1365.52 1229.02 1366.05 1229.66C1378.36 1244.05 1393.34 1255.55 1410.92 1264.16C1466.36 1291.35 1532.09 1292.25 1590.99 1276.96C1629.08 1267.06 1662.99 1248.02 1692.73 1219.79C1693.82 1218.76 1694.6 1217.48 1695.02 1216.04L1700.79 1195.88C1701.03 1195.05 1700.5 1194.18 1699.65 1194.04C1682.87 1191.22 1667.33 1185.05 1652.99 1175.56C1630.43 1160.61 1621.63 1129.16 1616.66 1104.88C1605.51 1050.32 1599.26 993.978 1597.85 935.854C1597.82 934.551 1598.03 933.247 1598.46 932.024L1614.02 887.786C1614.58 886.217 1616.5 885.658 1617.83 886.643C1622.03 889.755 1627 894.596 1631.82 895.82C1645.36 899.305 1659.67 889.382 1654.22 875.178C1651.48 868.048 1645.57 862.143 1637.16 864.138C1636.31 864.324 1635.52 864.697 1634.82 865.176C1632.56 866.745 1630.46 871.507 1626.36 870.895C1624.53 870.629 1622.72 870.017 1620.94 869.059C1618.81 867.942 1617.88 865.229 1618.68 862.595C1625.19 841.501 1652.46 844.453 1663.66 858.978C1664.43 859.962 1665.81 860.175 1666.82 859.483C1691.22 842.538 1704.15 819.156 1705.58 789.283C1706.41 772.099 1702.31 757.122 1693.35 744.354C1674.86 718.046 1642.19 715.545 1619.4 737.677C1618.25 738.794 1614.9 743.104 1609.34 750.605C1608.81 751.323 1608.06 751.855 1607.24 752.175C1603.91 753.372 1600.38 752.68 1597.1 750.366C1595.51 749.222 1594.18 748.796 1593.09 749.116C1580.37 752.84 1566.7 756.67 1552.07 760.634C1551.24 760.847 1550.74 761.698 1550.92 762.549C1555.47 783.803 1554.91 802.716 1549.27 819.236C1535.26 860.201 1500.14 884.568 1457.37 881.056C1412.79 877.359 1376.53 840.889 1373.55 796.199C1373.47 794.976 1372.72 793.885 1371.61 793.38C1356.52 786.41 1343.54 788.299 1332.66 799.072C1332 799.737 1331.63 800.668 1331.68 801.626L1332.24 810.005C1332.34 811.654 1334.31 812.426 1335.51 811.309C1337.85 809.127 1339.95 807.079 1343.04 809.287C1346.1 811.495 1347.24 815.006 1346.44 819.821C1343.84 835.436 1338.86 849.002 1331.55 860.547C1324.31 871.985 1334.76 882.785 1345.4 884.887C1350.41 885.871 1366.02 883.903 1365.14 894.41C1364.37 903.481 1354 904.119 1346.89 903.242C1335.51 901.858 1321.46 895.048 1316.94 883.956C1316.38 882.599 1315.96 881.695 1315.67 881.269C1315.16 880.551 1314.12 880.524 1313.56 881.216C1295.53 904.013 1264.35 918.484 1234.59 912.392C1233.52 912.179 1232.62 913.19 1232.96 914.228C1248.23 960.939 1273.82 1004.41 1313.83 1033.24C1350.41 1059.63 1390.33 1069.36 1433.59 1062.48C1455.56 1058.96 1481.92 1048.67 1502.03 1034.65C1514.08 1026.27 1521.21 1021.43 1523.39 1020.13C1526.8 1018.08 1531.19 1020.15 1531.8 1024.06L1531.85 1024.41C1532.65 1029.36 1530.81 1034.36 1527.04 1037.66C1492.59 1067.53 1453.03 1082.82 1408.42 1083.52C1407.33 1083.54 1406.51 1084.5 1406.64 1085.56C1410.52 1113.6 1414.14 1143.42 1409.83 1170.58C1408.37 1179.81 1404.73 1186.54 1398.87 1190.82C1390.07 1197.26 1379.56 1200 1367.35 1199.07C1362.72 1195.08 1362.48 1190.43 1366.63 1185.08C1371.77 1182.82 1377.35 1180.9 1383.39 1179.33C1389.64 1177.74 1392.91 1172.82 1393.26 1164.57C1393.82 1151.14 1393.63 1136.11 1392.7 1119.43C1392.65 1118.39 1391.72 1117.62 1390.71 1117.75C1353.78 1122.89 1323.65 1123.44 1279.94 1124.75C1213.04 1126.74 1170.66 1084.13 1153.35 1023.66C1153.03 1022.52 1151.51 1022.28 1150.85 1023.29C1150.82 1023.32 1150.79 1024.01 1150.77 1025.37C1150.21 1053.35 1157.55 1077.45 1172.84 1097.69C1175.32 1100.97 1172.34 1105.52 1168.35 1104.61C1094.13 1087.72 1070.94 1010.79 1084.13 943.728C1089.1 918.324 1098.65 890.952 1103.07 867.304C1111.61 821.71 1110.76 779.84 1111.69 732.756C1113.98 616.43 1162.26 496.087 1266.13 434.452C1307.53 409.9 1352.08 401.547 1399.8 409.421C1402.84 409.9 1405.95 409.687 1408.9 408.782C1444.39 397.716 1479.58 394.152 1516.85 400.536C1580.82 411.522 1640.92 454.855 1680.13 506.727C1706.49 541.575 1724.66 580.518 1741.17 621.111C1754.32 653.432 1769.4 681.283 1787.49 705.304C1808.95 733.847 1839.36 765.901 1859.23 801.227C1878.68 835.835 1886.28 872.384 1882.05 910.876C1879.55 933.647 1872.02 954.129 1859.5 972.351C1857.58 975.144 1855.27 977.113 1852.58 978.203C1849.52 979.453 1846.2 977.033 1846.46 973.708C1848.78 945.032 1842.87 918.112 1828.72 892.974C1827.41 890.659 1826.19 886.722 1823.24 884.887C1822.55 884.461 1821.67 885.126 1821.94 885.898C1837.55 932.662 1832.81 985.306 1801.64 1024.41C1786.29 1043.64 1763.15 1057.37 1740.62 1065.03C1738.67 1065.69 1721.28 1071.17 1688.45 1081.42C1678.18 1084.63 1660.04 1088.49 1634 1093.01C1633.25 1093.15 1632.78 1093.86 1632.91 1094.61C1636.55 1114.16 1641.79 1138.1 1655.09 1153.74C1666.61 1167.28 1691.11 1175.37 1709.09 1179.23Z" fill="black"/>
<path d="M562.273 1020.53C557.831 1020.23 554.346 1016.59 554.266 1012.15C553.123 954.315 523.622 909.785 460.87 909.466C454.194 909.44 450.922 906.62 451.001 901.034C451.055 897.043 454.007 893.745 457.891 893.346C466.111 892.521 473.453 891.298 479.917 889.702C531.629 876.96 549.931 832.297 549.026 783.138C548.946 778.749 552.005 774.918 556.288 774.014L556.687 773.934C560.677 773.083 564.588 775.637 565.412 779.627C565.705 781.196 566.689 789.043 568.365 803.169C569.429 812.133 572.142 822.055 576.531 832.935C588.342 862.409 610.022 879.7 641.597 884.807C645.401 885.419 650.934 886.004 658.196 886.536C662.905 886.882 666.017 887.946 667.587 889.675C672.694 895.394 668.092 902.683 660.75 903.374C612.31 907.976 579.936 935.642 573.366 984.454C572.861 988.205 572.196 997.675 571.398 1012.86C571.158 1017.41 567.274 1020.87 562.726 1020.58L562.273 1020.53Z" fill="black"/>
<path d="M795.791 1051.17L795.43 1051.26C790.457 1052.57 787.483 1057.66 788.787 1062.63L807.485 1133.91C808.79 1138.88 813.88 1141.85 818.854 1140.55L819.214 1140.45C824.188 1139.15 827.162 1134.06 825.857 1129.09L807.159 1057.81C805.854 1052.84 800.764 1049.87 795.791 1051.17Z" fill="black"/>
<path d="M666.346 1102.86L666.06 1103.1C662.053 1106.44 661.511 1112.39 664.849 1116.4L714.161 1175.59C717.5 1179.59 723.454 1180.14 727.461 1176.8L727.747 1176.56C731.754 1173.22 732.296 1167.27 728.958 1163.26L679.646 1104.07C676.307 1100.07 670.353 1099.53 666.346 1102.86Z" fill="black"/>
<path d="M669.982 1233.23L614.609 1205.74C610.108 1203.51 604.649 1205.34 602.415 1209.84L602.249 1210.18C600.015 1214.68 601.853 1220.14 606.353 1222.37L661.727 1249.86C666.227 1252.09 671.686 1250.26 673.92 1245.76L674.086 1245.42C676.32 1240.92 674.483 1235.46 669.982 1233.23Z" fill="black"/>
<path d="M1069.98 1310.88C1088.74 1370.81 1107.81 1431.11 1127.2 1491.82C1135.79 1518.74 1144.78 1547.76 1154.23 1578.91C1164.2 1611.79 1173.22 1640.78 1181.28 1665.92C1187.96 1686.69 1188.76 1709.07 1172.5 1725.8C1164.58 1733.96 1155.19 1738.75 1144.36 1740.19C1121.56 1743.19 1102.04 1744.9 1085.78 1745.3C1084.48 1745.32 1083.42 1746.41 1083.42 1747.72C1083.44 1770.75 1086.26 1799.22 1085.33 1823.69C1081.1 1935.12 1065.54 2050.62 1015.24 2151.09C1002.6 2176.34 986.376 2198.82 966.558 2218.55C951.316 2233.85 935.329 2244.06 918.597 2249.25C910.244 2244.52 914.66 2237.81 920.219 2233.69C948.656 2212.6 971.134 2188.1 989.648 2156.57C1005.69 2129.25 1018.51 2099.43 1028.11 2067.06C1040.27 2026.07 1048.91 1989.76 1054.02 1958.13C1060.73 1916.66 1064.96 1869.82 1066.68 1817.57C1067.38 1796.37 1064.88 1769.32 1064.72 1747.9C1064.72 1747.18 1064.13 1746.63 1063.41 1746.68L983.317 1751.92C982.466 1751.97 981.827 1752.72 981.934 1753.57C985.339 1780.3 981.029 1804.56 969.032 1826.32C968.314 1827.6 968.314 1829.14 969.005 1830.42C971.16 1834.33 974.858 1837.92 976.64 1842.39C979.087 1848.53 982.013 1854.44 985.445 1860.13C986.057 1861.17 986.482 1862.31 986.722 1863.54C988.291 1871.65 989.063 1879.34 989.036 1886.55C988.956 1920.01 985.525 1954.01 978.741 1988.56C977.199 1996.33 965.893 1999.04 963.1 1989.15C962.941 1988.54 962.861 1987.92 962.887 1987.29C963.712 1969.49 967.649 1950.44 968.766 1932.38C969.644 1918.39 970.442 1903.78 971.213 1888.54C972.065 1871.84 968.234 1856.81 959.695 1843.45C958.791 1842.04 956.742 1842.02 955.785 1843.37C953.151 1847.07 951.13 1851.38 949.72 1856.3C949.321 1857.69 949.773 1859.15 950.89 1860.08C954.96 1863.46 955.412 1867.69 952.3 1872.82C939.399 1894 906.094 1895.91 884.893 1889.77C865.98 1884.31 849.993 1876.15 836.905 1865.32C811.953 1844.68 793.918 1820.58 787.986 1789.4C786.629 1782.24 788.997 1777.3 795.062 1774.5C796.445 1773.87 797.243 1772.35 796.977 1770.83L783.384 1693.61C778.143 1665.04 775.031 1640.89 774.047 1621.18C771.812 1576.43 785.725 1530.52 817.779 1498.92C818.444 1498.25 818.683 1497.29 818.417 1496.42C814.294 1482.66 810.65 1470.91 807.458 1461.2C780.724 1380.12 762.422 1324.15 752.606 1293.32C744.493 1267.91 755.666 1240.76 779.793 1229.72C785.645 1227.06 796.551 1225.35 812.485 1224.63C875.716 1221.74 930.008 1219.23 975.337 1217.16C993.505 1216.34 1005.85 1216.89 1012.39 1218.78C1035.83 1225.59 1048.44 1242.4 1055.59 1265.04C1060.19 1279.65 1065.01 1294.91 1069.98 1310.88Z" fill="black"/>
<path d="M2322.62 1833.74C2317.62 1838.43 2312.86 1843.03 2308.31 1847.55C2301.08 1854.79 2292.56 1861.57 2282.75 1867.87C2278.2 1870.77 2280.97 1877.24 2278.78 1881.31C2275.46 1887.56 2270.99 1892.88 2265.38 1897.27C2239.36 1917.56 2209.44 1928.76 2175.63 1930.92C2154.58 1932.25 2126.87 1928.52 2109.26 1916.29C2095.53 1906.74 2085.55 1896.79 2081.11 1880.75C2079.46 1874.76 2080.13 1869.47 2083.13 1864.81C2083.83 1863.72 2084.25 1862.5 2084.33 1861.2C2085.1 1849.49 2084.6 1840.29 2087.63 1830.37C2087.98 1829.25 2086.75 1828.29 2085.74 1828.9C2075.15 1835.31 2067.31 1844.44 2062.23 1856.25C2056.16 1870.37 2051.56 1884.76 2048.39 1899.4C2040.68 1935.28 2034.8 1968 2030.78 1997.61C2030.68 1998.3 2030.41 1998.99 2030.04 1999.57C2024.59 2007.74 2015.46 2004.15 2015.09 1994.89C2014.64 1983.8 2015.62 1971.35 2018.04 1957.52C2022.24 1933.34 2024.4 1921 2024.51 1920.49C2027.09 1906.58 2031.9 1888.99 2038.9 1867.71C2043.87 1852.68 2049.72 1841.41 2056.48 1833.88C2065.98 1823.32 2076.24 1815.76 2087.23 1811.21C2088.27 1810.79 2088.93 1809.78 2088.96 1808.66C2089.31 1785.57 2093.85 1755.4 2106.68 1735.13C2107.21 1734.31 2106.54 1733.25 2105.56 1733.35C2095.32 1734.58 2082.36 1735.8 2066.67 1737C2049.96 1738.27 2031.1 1735.88 2016.61 1726.73C1990.54 1710.29 1997.75 1680.02 1999 1653.63C2001.47 1602.26 2005.3 1554.78 2007.67 1506.07C2009.24 1474.05 2013.09 1441.59 2014.1 1407.54C2014.93 1381 2020.99 1361.39 2048.34 1355.51C2055.18 1354.05 2060.42 1353.17 2064.09 1352.82L2096.86 1347.5C2097.63 1347.37 2098.22 1346.76 2098.32 1345.99C2098.67 1343.51 2098.83 1339.95 2098.78 1335.29C2098.62 1318.3 2104.07 1305.87 2115.11 1298.05C2120.06 1294.52 2132.48 1291.19 2152.35 1288.05C2226.03 1276.37 2302.96 1264.19 2383.11 1251.45C2400.54 1248.68 2413.09 1255.01 2420.75 1270.44C2422.54 1274.06 2423.33 1280.82 2423.15 1290.69C2422.94 1302.12 2422.4 1314.55 2421.55 1327.95C2421.47 1329.26 2422.59 1330.29 2423.84 1330.11C2432.01 1328.94 2441.72 1327.82 2453.02 1326.78C2472.76 1324.92 2493.59 1333.33 2499.2 1353.57C2501.14 1360.54 2501.81 1368.89 2501.2 1378.65C2499.68 1402.91 2497.5 1428.74 2494.62 1456.14C2494.52 1457.15 2495.16 1458.08 2496.11 1458.4C2498.22 1459.07 2502.05 1459.34 2503.83 1460.05C2516.65 1465.19 2523.11 1475.08 2523.25 1489.74C2523.38 1505.54 2522.24 1523.63 2519.87 1543.98C2517.34 1565.9 2509.89 1582.39 2485.37 1584.87C2484.46 1584.95 2483.75 1585.66 2483.67 1586.57C2480.87 1613.59 2479.3 1629.5 2479.01 1634.29C2478.05 1650.01 2475.92 1661.05 2472.63 1667.38C2464.73 1682.46 2451.27 1691.35 2432.19 1694.06C2424.13 1695.21 2412.53 1696.86 2397.45 1698.98C2396.52 1699.12 2395.83 1699.91 2395.8 1700.85C2395.3 1722.53 2389.52 1742.98 2378.51 1762.19C2363.22 1788.89 2344.57 1812.76 2322.62 1833.74Z" fill="black"/>
<path d="M2100.13 2320.86C2091.22 2323.1 2077.17 2314.74 2069.3 2309.61C2050.71 2297.45 2033.87 2282.32 2018.84 2264.23C1998.65 2239.44 1981.97 2213.77 1968.78 2187.24C1949.81 2149.12 1933.98 2106.48 1921.32 2059.29C1906.29 2003.4 1895.14 1946.27 1887.88 1887.82C1878.76 1814.64 1873.28 1743.99 1871.42 1675.81C1871.28 1671.16 1874.74 1667.17 1879.37 1666.58L1879.69 1666.53C1884.13 1665.97 1888.12 1669.3 1888.39 1673.77C1889.85 1697.63 1891.58 1724.6 1893.55 1754.66C1898.55 1831.03 1907.83 1905.73 1921.43 1978.72C1929.54 2022.48 1941.88 2067.91 1958.45 2115.08C1965.18 2134.25 1971.62 2149.95 1977.71 2162.13C1984.63 2175.99 1992.64 2190.92 2001.76 2206.9C2011.82 2224.51 2025.62 2242.15 2037.03 2256.03C2052.28 2274.58 2072.25 2291.55 2097.02 2307C2103.86 2311.26 2104.89 2315.89 2100.13 2320.86Z" fill="black"/>
<path d="M989.86 2537.63L979.991 2659.41C979.645 2663.67 976.001 2666.83 971.851 2666.49L971.532 2666.46C967.143 2666.09 963.738 2662.47 963.685 2658.06C963.126 2615.87 965.52 2574.18 970.814 2533C977.438 2531.57 983.795 2533.11 989.86 2537.63Z" fill="black"/>
<path d="M1992.53 2541.78C1997.61 2580.11 2000.14 2618.63 2000.11 2657.28C2000.11 2667.87 1989.07 2670.16 1984.2 2661.67C1983.83 2661.01 1983.59 2660.26 1983.54 2659.49C1981.3 2622.17 1977.79 2584.82 1972.98 2547.48C1976.3 2544.07 1982.82 2542.18 1992.53 2541.78Z" fill="black"/>
<path d="M2520.45 814.767C2520.61 813.198 2518.72 812.293 2517.61 813.41L2338.37 993.978C2337.73 994.616 2337.01 995.148 2336.24 995.574C2329.62 999.165 2323.84 998.74 2318.95 994.35C2306.13 982.832 2293.12 971.5 2279.9 960.354C2269.58 951.656 2257.58 940.616 2243.94 927.236C2241.25 924.603 2238.88 922.554 2236.81 921.065C2235.26 919.974 2233.19 920.134 2231.86 921.464L2079.28 1074.1C2074.19 1079.18 2065.92 1079.05 2061.03 1073.81L2060.97 1073.75C2055.92 1068.35 2056.24 1059.84 2061.69 1054.81C2073.69 1043.72 2083.19 1033.96 2090.13 1025.5C2095.13 1019.44 2103 1013.26 2107.66 1008.45C2143.22 971.553 2180.81 933.328 2220.42 893.772C2226.88 887.308 2234.28 886.377 2242.58 891.032C2242.92 891.245 2243.27 891.484 2243.56 891.75L2326.96 966.02C2327.62 966.632 2328.66 966.579 2329.27 965.941C2353.61 940.51 2386.62 907.073 2428.36 865.602C2431.42 862.569 2436.21 857.302 2442.72 849.827C2453.39 837.538 2466.88 827.19 2477.62 815.379C2484.3 808.064 2491.22 802.424 2498.37 795.322C2499.52 794.178 2498.48 792.263 2496.91 792.582C2476.51 796.812 2455.81 799.605 2434.77 801.014C2427.67 801.493 2421.58 796.013 2421.31 788.911L2421.28 788.352C2421.02 781.489 2425.91 775.531 2432.7 774.493C2444.05 772.711 2455.76 771.221 2467.86 770.024C2490.18 767.763 2509.41 764.89 2528.17 762.204C2547.11 759.464 2548.92 769.705 2548.36 785.24C2548.06 793.513 2546.36 822.082 2543.2 870.922C2542.77 877.492 2541.57 881.642 2539.58 883.371C2534.87 887.468 2527.98 888.319 2522.82 884.462C2517.74 880.658 2515.66 875.045 2516.6 867.676C2518.43 852.966 2519.39 842.778 2519.42 837.112C2519.47 828.254 2519.81 820.806 2520.45 814.767Z" fill="#6DAEFE"/>
<path d="M2064.09 1352.82C2060.42 1353.17 2055.18 1354.05 2048.34 1355.51C2021 1361.39 2014.93 1381 2014.11 1407.54C2013.09 1441.59 2009.24 1474.05 2007.67 1506.07C2005.3 1554.78 2001.47 1602.26 1999 1653.63C1997.75 1680.02 1990.54 1710.29 2016.61 1726.73C2031.1 1735.88 2049.96 1738.27 2066.67 1737C2082.36 1735.8 2095.32 1734.58 2105.56 1733.35C2106.54 1733.25 2107.21 1734.31 2106.68 1735.13C2093.86 1755.4 2089.31 1785.57 2088.96 1808.66C2088.93 1809.78 2088.27 1810.79 2087.23 1811.21C2076.25 1815.76 2065.98 1823.32 2056.48 1833.88C2049.72 1841.41 2043.87 1852.68 2038.9 1867.71C2031.9 1888.99 2027.09 1906.58 2024.51 1920.49C2024.4 1921 2022.25 1933.34 2018.04 1957.52C2015.62 1971.35 2014.64 1983.8 2015.09 1994.89C2015.46 2004.15 2024.59 2007.74 2030.04 1999.57C2030.41 1998.99 2030.68 1998.3 2030.78 1997.61C2034.8 1968 2040.68 1935.28 2048.39 1899.4C2051.56 1884.76 2056.16 1870.37 2062.23 1856.25C2067.31 1844.44 2075.15 1835.31 2085.74 1828.9C2086.75 1828.29 2087.98 1829.25 2087.63 1830.37C2084.6 1840.29 2085.1 1849.49 2084.33 1861.2C2084.25 1862.5 2083.83 1863.72 2083.14 1864.81C2080.13 1869.47 2079.46 1874.76 2081.11 1880.75C2085.56 1896.79 2095.53 1906.74 2109.26 1916.29C2126.87 1928.52 2154.59 1932.25 2175.63 1930.92C2209.44 1928.76 2239.36 1917.56 2265.38 1897.27C2270.99 1892.88 2275.46 1887.56 2278.79 1881.31C2280.97 1877.24 2278.2 1870.77 2282.75 1867.87C2292.56 1861.57 2301.08 1854.79 2308.31 1847.55C2312.86 1843.03 2317.62 1838.43 2322.62 1833.74C2327.49 1848.4 2332.07 1863.06 2336.35 1877.66C2342.52 1898.86 2346.88 1913.55 2349.41 1921.77C2378.67 2017.08 2396.28 2117.07 2360.64 2211.77C2343.13 2258.27 2311.64 2298.46 2268.2 2322.7C2218.14 2350.6 2155.81 2347.17 2104.26 2324.53C2102.95 2323.97 2101.6 2322.75 2100.13 2320.86C2104.89 2315.89 2103.86 2311.26 2097.02 2307C2072.26 2291.55 2052.28 2274.58 2037.04 2256.03C2025.62 2242.15 2011.82 2224.51 2001.76 2206.9C1992.64 2190.92 1984.63 2175.99 1977.72 2162.13C1971.62 2149.95 1965.19 2134.26 1958.46 2115.08C1941.88 2067.91 1929.54 2022.48 1921.43 1978.72C1907.83 1905.73 1898.55 1831.03 1893.55 1754.66C1891.58 1724.6 1889.85 1697.63 1888.39 1673.77C1888.12 1669.3 1884.13 1665.97 1879.69 1666.53L1879.37 1666.58C1874.74 1667.17 1871.28 1671.16 1871.42 1675.81C1873.28 1743.99 1878.76 1814.64 1887.88 1887.82C1895.15 1946.27 1906.29 2003.41 1921.32 2059.29C1933.98 2106.48 1949.81 2149.13 1968.78 2187.24C1981.97 2213.77 1998.65 2239.44 2018.84 2264.23C2018.79 2274.26 2019.37 2281.81 2020.6 2286.89C2025.44 2307.08 2028.39 2332.14 2031.29 2348.13C2040.41 2398.51 2048.53 2446.15 2055.6 2491.03C2058.18 2507.44 2052.73 2519.73 2039.22 2527.9C2028.87 2534.15 2019.4 2537.87 2010.86 2539.02C2003.41 2540.03 1997.29 2540.96 1992.53 2541.78C1982.82 2542.18 1976.31 2544.07 1972.98 2547.48C1957.39 2549.95 1941.94 2552.61 1926.64 2555.46C1872.53 2565.48 1809.89 2575.38 1738.73 2585.14C1731.2 2586.18 1725.91 2585.57 1722.9 2583.31C1689.92 2459 1662.57 2329.29 1640.87 2194.16C1623.39 2085.23 1612.64 1982.26 1608.65 1885.22C1603.49 1759.37 1613.12 1636.84 1637.54 1517.7C1657.2 1421.88 1681.81 1329.36 1704.34 1250.04C1709.39 1232.22 1712.93 1213.57 1717.74 1195.45C1719.98 1187.1 1718.04 1180.85 1709.1 1179.23C1714.76 1175.74 1721.71 1174.92 1729.93 1176.7C1749.51 1180.96 1764.96 1184.52 1776.32 1187.42C1856.52 1207.77 1932.01 1237.83 1996.44 1287.73C2005.51 1294.75 2014.8 1302.92 2024.24 1312.23C2025.65 1313.61 2031.95 1320.74 2043.13 1333.59C2049.91 1341.36 2056.88 1347.77 2064.09 1352.82Z" fill="#6DAEFE"/>
<path d="M1366.64 1185.08C1362.49 1190.43 1362.73 1195.08 1367.36 1199.07C1365.2 1200.61 1363.76 1204.36 1363.1 1210.3C1355.7 1207.72 1350.94 1210.27 1348.84 1217.98C1347.22 1223.97 1343.25 1243.02 1336.98 1275.12C1333.76 1291.51 1330.41 1310.66 1326.92 1332.61C1312.96 1420.18 1300.64 1513.15 1290.03 1611.52C1285.85 1650.06 1280.66 1707.95 1274.44 1785.22C1270.39 1835.37 1265.26 1893.3 1259.01 1958.98C1245.98 2096.32 1227.99 2231.24 1205.04 2363.72C1202.4 2378.93 1200.54 2389.07 1199.45 2394.15C1196.55 2407.63 1195.22 2420.48 1192.48 2434.85C1184.07 2478.9 1175.93 2523.06 1168.06 2567.32C1167.93 2570.06 1164.42 2571.02 1157.58 2570.19C1121.91 2565.91 1086.48 2560.11 1051.28 2552.82C1043.22 2551.15 1032.98 2548.67 1020.56 2545.4C1010.32 2542.66 1000.08 2540.08 989.861 2537.63C983.796 2533.11 977.438 2531.57 970.814 2533C952.433 2526.38 937.723 2520.4 926.737 2515.02C917.612 2510.55 911.627 2503.5 908.781 2493.9C907.052 2488.13 907.477 2478.71 910.058 2465.68C916.894 2431.02 922.214 2405.93 925.992 2390.48C932.855 2362.31 938.414 2331.58 944.932 2308.44C949.241 2293.22 951.263 2277.34 956.131 2261.2C957.594 2256.25 959.349 2249.15 961.371 2239.89C962.887 2233 964.616 2225.9 966.558 2218.55C986.376 2198.82 1002.6 2176.34 1015.24 2151.09C1065.54 2050.62 1081.1 1935.12 1085.33 1823.69C1086.26 1799.22 1083.44 1770.75 1083.42 1747.72C1083.42 1746.41 1084.48 1745.32 1085.78 1745.3C1102.04 1744.9 1121.56 1743.19 1144.36 1740.19C1155.19 1738.75 1164.58 1733.96 1172.5 1725.8C1188.76 1709.07 1187.96 1686.69 1181.28 1665.92C1173.22 1640.78 1164.2 1611.79 1154.23 1578.91C1144.78 1547.76 1135.79 1518.74 1127.2 1491.82C1107.81 1431.11 1088.74 1370.81 1069.98 1310.88C1093.13 1286.69 1114.65 1268.07 1134.54 1254.96C1137.04 1253.34 1147.71 1247.27 1166.52 1236.79C1179.05 1229.8 1190.06 1224.4 1199.5 1220.54C1237.52 1205.08 1278.24 1192.87 1319.82 1186.3C1331.82 1184.41 1342.48 1182.69 1351.77 1181.06C1357.7 1180.03 1362.67 1181.38 1366.64 1185.08Z" fill="#6DAEFE"/>
<path d="M783.383 1693.61L796.976 1770.83C797.242 1772.35 796.444 1773.87 795.061 1774.5C788.996 1777.3 786.628 1782.24 787.985 1789.4C793.917 1820.58 811.952 1844.68 836.904 1865.32C849.992 1876.15 865.979 1884.31 884.892 1889.77C906.093 1895.91 939.398 1894 952.299 1872.82C955.412 1867.69 954.959 1863.46 950.889 1860.08C949.772 1859.15 949.32 1857.69 949.719 1856.3C951.129 1851.38 953.15 1847.07 955.784 1843.37C956.742 1842.02 958.79 1842.04 959.694 1843.45C968.233 1856.81 972.064 1871.84 971.213 1888.54C970.441 1903.78 969.643 1918.39 968.765 1932.38C967.648 1950.44 963.711 1969.49 962.886 1987.29C962.86 1987.92 962.94 1988.54 963.099 1989.15C965.892 1999.04 977.198 1996.33 978.741 1988.56C985.524 1954.01 988.955 1920.01 989.035 1886.55C989.062 1879.34 988.29 1871.65 986.721 1863.54C986.481 1862.31 986.056 1861.17 985.444 1860.13C982.013 1854.44 979.086 1848.53 976.639 1842.39C974.857 1837.92 971.159 1834.33 969.005 1830.42C968.313 1829.14 968.313 1827.6 969.031 1826.32C981.028 1804.56 985.338 1780.3 981.933 1753.57C981.826 1752.72 982.465 1751.97 983.316 1751.92L1063.41 1746.68C1064.13 1746.63 1064.71 1747.18 1064.71 1747.9C1064.87 1769.32 1067.38 1796.37 1066.68 1817.57C1064.95 1869.82 1060.72 1916.66 1054.02 1958.13C1048.91 1989.76 1040.27 2026.07 1028.11 2067.06C1018.51 2099.43 1005.69 2129.25 989.647 2156.57C971.133 2188.1 948.655 2212.6 920.218 2233.69C914.659 2237.81 910.243 2244.52 918.596 2249.25C911.307 2253.8 903.939 2257.31 896.49 2259.81C885.797 2263.43 872.789 2268.8 862.308 2271.54C831.637 2279.55 800.487 2280.77 768.859 2275.16C713.529 2265.4 667.004 2224.54 641.626 2175.03C628.033 2148.57 619.494 2121.59 615.956 2094.11C611.78 2061.61 612.551 2030.33 618.271 2000.29C628.299 1947.76 647.931 1898.73 677.112 1853.27C687.885 1836.48 693.312 1828.05 693.392 1827.92C706.905 1807.6 714.699 1796.16 716.801 1793.58C728.691 1779 739.651 1763.81 749.68 1747.98C756.782 1736.78 762.501 1727.79 766.864 1721.01C772.503 1712.23 778.01 1703.11 783.383 1693.61Z" fill="#6DAEFE"/>
<path d="M1585.8 732.329C1586.23 732.915 1585.91 733.766 1585.19 733.925L1544.38 743.342C1543.82 743.475 1543.24 743.236 1542.95 742.757C1527.17 716.502 1506.13 701.127 1479.77 696.631C1426.19 687.507 1382.3 720.439 1373.5 774.12C1373.36 774.944 1372.51 775.45 1371.74 775.184C1355.3 769.464 1340.27 771.406 1326.65 781.036C1326.15 781.382 1325.43 781.222 1325.14 780.663C1319.68 770.475 1311.94 758.132 1303.19 750.844C1271.3 724.243 1230.38 719.96 1196.92 747.146C1195.22 748.529 1193.75 750.152 1192.58 751.988C1190.06 755.898 1185.72 762.335 1179.6 771.3C1168.86 787.021 1165.58 813.888 1169.6 832.642C1175 857.833 1188.12 876.666 1208.94 889.169C1210.03 889.807 1210.81 890.871 1211.1 892.122L1213.81 903.932C1213.97 904.677 1213.36 905.342 1212.61 905.236C1209.93 904.837 1206.74 903.533 1203.09 901.352C1174.02 883.982 1157.95 858.445 1154.92 824.794C1154.38 818.889 1153.48 818.437 1149.54 815.644C1143.72 811.521 1144.99 796.571 1146.4 791.33C1149.62 779.44 1156.06 769.012 1165.72 760.048C1181.07 745.816 1197.32 731.984 1214.48 718.497C1215.06 718.018 1215.78 717.752 1216.5 717.699L1220.89 717.327C1221.71 717.247 1222.51 717.007 1223.2 716.582C1235.62 709.107 1248.58 706.819 1262.09 709.719C1265.74 710.49 1268.34 710.543 1269.86 709.852C1279.86 705.383 1276.8 693.439 1267.39 691.258C1260.92 689.768 1254.4 689.502 1247.83 690.486C1246.85 690.619 1246.24 689.422 1246.98 688.73C1278.8 659.177 1308.19 627.096 1335.17 592.435C1349 574.692 1361.47 556.098 1372.62 536.679C1373.34 535.429 1375.2 535.562 1375.73 536.919C1379.48 546.655 1384.99 557.428 1392.25 569.265C1425.93 624.143 1471.07 665.561 1525.15 698.28C1544.12 709.745 1563.93 720.731 1584.6 731.212C1585.06 731.452 1585.45 731.824 1585.8 732.329Z" fill="white"/>
<path d="M1447.47 713.436C1487.03 704.957 1526.3 731.479 1535.12 772.697C1543.96 813.915 1519.04 854.189 1479.46 862.682C1439.9 871.16 1400.63 844.639 1391.81 803.421C1382.97 762.203 1407.9 721.929 1447.47 713.436Z" fill="white"/>
<path d="M1199.08 768.162C1225.17 739.326 1268.45 738.688 1294.76 767.47C1308.38 782.393 1315.35 800.083 1315.67 820.486C1316.07 847.459 1305.8 868.82 1284.84 884.541C1270.02 895.687 1247.36 899.544 1230.2 893.346C1227.67 892.442 1225.76 890.314 1225.15 887.68L1198.28 771.168C1198.04 770.104 1198.33 768.986 1199.08 768.162Z" fill="white"/>
<path d="M1359.43 1250.52C1359.5 1250.04 1360.09 1249.83 1360.46 1250.17C1401.69 1289.46 1457.8 1305.18 1513.95 1305.39C1567.26 1305.63 1616.74 1292.6 1662.41 1266.34C1670.2 1261.85 1677.33 1256.82 1683.8 1251.21C1684.25 1250.81 1684.91 1251.26 1684.76 1251.85C1655.49 1353.46 1628.89 1458.14 1609.45 1566.11C1597.88 1630.25 1590.8 1704.46 1588.19 1788.73C1587.87 1799.16 1588.09 1820.31 1588.83 1852.18C1591.36 1961.3 1602.85 2070.47 1619.16 2176.47C1630.41 2249.86 1643.68 2322.4 1658.93 2394.15C1659.11 2395.05 1658.55 2395.9 1657.65 2396.09C1514.62 2425.59 1372.06 2425.59 1229.98 2396.14C1228.31 2395.8 1225.01 2394.89 1220.06 2393.43C1219.18 2393.16 1218.65 2392.31 1218.81 2391.41C1241.37 2266.04 1259.22 2140.72 1272.33 2015.46C1276.64 1974.22 1283.32 1900.7 1288.56 1837.39C1296.3 1744.07 1302.82 1671.34 1308.14 1619.21C1320.88 1494 1337.98 1371.1 1359.43 1250.52Z" fill="white"/>
<path d="M2117.55 1373.73C2116.65 1373.87 2115.85 1373.17 2115.83 1372.27C2115.64 1363.89 2115.67 1351.36 2115.85 1334.68C2115.98 1324.71 2119.02 1317.47 2125 1312.98C2128.46 1310.4 2136.31 1308.19 2148.52 1306.41C2208.85 1297.63 2285.65 1285.55 2378.91 1270.2C2386.06 1269.03 2390.59 1268.53 2392.53 1268.66C2404.05 1269.51 2406.73 1280.55 2405.96 1290.66C2405.27 1299.81 2404.42 1313.67 2403.44 1332.21C2403.41 1332.93 2402.88 1333.54 2402.16 1333.62L2117.55 1373.73Z" fill="white"/>
<path d="M926.308 1694.91C931.548 1695.36 940.832 1688.63 947.536 1684.46C975.919 1666.77 997.599 1653.63 1012.52 1645.04C1018.16 1641.79 1023.32 1639.29 1028.03 1637.51C1028.83 1637.22 1029.68 1637.11 1030.5 1637.24C1044.76 1639.4 1041.33 1653.65 1035.35 1662.59C1031.2 1668.76 1023.35 1677.09 1011.83 1687.57C999.461 1698.8 984.165 1711.86 965.943 1726.78C960.543 1731.22 960.065 1736.84 961.927 1744.07C970.758 1778.52 963.629 1809.32 940.54 1836.48C939.795 1837.33 939.209 1838.32 938.81 1839.36L925.989 1871.04C925.723 1871.7 925.164 1872.23 924.499 1872.5C919.206 1874.5 913.539 1875.32 907.501 1874.97C864.381 1872.47 828.044 1841.22 810.567 1803.34C809.636 1801.29 809.583 1798.95 810.407 1796.85C815.408 1784.24 816.446 1775.35 813.972 1761.04C808.04 1726.7 803.385 1700.92 800.06 1683.77C795.75 1661.5 793.223 1635.73 791.867 1616.55C791.042 1605.35 792.691 1590.56 796.761 1572.12C805.965 1530.36 833.364 1501.6 872.308 1481.63C890.689 1472.18 909.071 1464.18 927.452 1457.58C934.341 1455.1 941.923 1453.8 950.142 1453.67C951.047 1453.64 951.951 1453.83 952.776 1454.2C964.64 1459.41 959.479 1474.1 952.829 1481.65C947.403 1487.77 941.604 1492.83 935.432 1496.79C909.31 1513.55 883.135 1528.15 865.099 1553C863.982 1554.54 862.599 1555.87 861.056 1556.99C857.411 1559.59 844.563 1565.1 842.462 1572.65C840.147 1581.01 848.926 1583.51 855.044 1580.53C856.56 1579.78 865.764 1575.02 882.603 1566.27C918.381 1547.68 956.686 1533.68 997.519 1524.32C1006.86 1522.17 1016.09 1520.94 1025.18 1520.65C1036.25 1520.28 1044.44 1528.68 1038.94 1539.78C1033.14 1551.43 1017.71 1558.96 1005.87 1563.96C960.011 1583.27 922.823 1600.27 884.704 1624.53C880.874 1626.95 879.836 1632.08 882.443 1635.81L882.629 1636.04C885.236 1639.8 890.29 1640.91 894.254 1638.63C933.464 1616.04 973.312 1596.44 1013.77 1579.81C1023.14 1575.95 1032.63 1570.74 1043.43 1573.53C1053.59 1576.17 1054.18 1587.63 1049.42 1594.95C1045.03 1601.7 1038.56 1607.85 1030.03 1613.38C1014.68 1623.33 992.624 1636.76 963.922 1653.71C946.498 1664 933.464 1672.22 924.818 1678.37C921.068 1681.03 919.259 1684.41 919.365 1688.48C919.445 1691.8 922.451 1694.57 926.308 1694.91Z" fill="white"/>
<path d="M2218.8 1773.33L2219.3 1773.07C2223.37 1770.97 2225.05 1765.99 2223.05 1761.87C2207.04 1728.46 2193.71 1708.37 2169.08 1669.7C2162.3 1659.03 2147.75 1631.5 2163.52 1622.32C2169.59 1618.81 2180.47 1625.54 2184.3 1629.29C2216.96 1661.26 2243.4 1698.24 2263.65 1740.24C2265.75 1744.58 2270.83 1746.52 2275.27 1744.71L2275.67 1744.55C2279.95 1742.79 2281.92 1737.82 2279.98 1733.59C2260.35 1691.14 2235.5 1657.35 2205.95 1624.23C2198.37 1615.7 2192.86 1607.08 2189.09 1597.15C2185.73 1588.32 2185.33 1574.89 2197.09 1572.71C2206.8 1570.9 2221.51 1582.12 2229.01 1587.9C2270.91 1620.11 2302.43 1660.44 2323.63 1708.91C2325.52 1713.24 2330.63 1715.13 2334.89 1713.11L2335.15 1713C2339.38 1711.01 2341.32 1706.06 2339.62 1701.72C2336.35 1693.4 2330.89 1681.32 2323.31 1665.49C2311.61 1641.13 2298.68 1625.88 2280.35 1603.33C2273.09 1594.41 2250.43 1559.33 2271.97 1553.24C2273.14 1552.92 2274.37 1552.92 2275.51 1553.29C2284.95 1556.22 2294.45 1561.59 2303.97 1569.41C2346.16 1604.1 2378.3 1643.12 2378.32 1701C2378.35 1726.14 2364.94 1752.8 2350.61 1773.44C2324.48 1811.05 2290.38 1840.53 2253.75 1870.05C2247.21 1875.32 2243.32 1881.81 2242.1 1889.53C2241.91 1890.72 2241.3 1891.81 2240.37 1892.61C2237.84 1894.77 2232.47 1897.61 2224.28 1901.12C2203.5 1910.04 2181.8 1913.87 2159.13 1912.62C2140.09 1911.58 2115.88 1904.18 2104.33 1887.88C2103.78 1887.11 2103.51 1886.17 2103.56 1885.22C2103.64 1883.81 2102.92 1876.84 2101.35 1864.31C2097.74 1835.21 2110 1810.87 2136.55 1797.46C2143.12 1794.13 2149.26 1792.33 2155.04 1792.01C2161.47 1791.66 2164.88 1789.4 2165.6 1783.55C2165.7 1782.72 2165.57 1781.9 2165.25 1781.15C2156.61 1761.73 2149.13 1741.78 2142.83 1721.3C2139.42 1710.26 2132.98 1683.34 2153.36 1684.78C2158.63 1685.18 2164.48 1695.29 2167.46 1699.91C2182.49 1723.51 2195.74 1746.71 2207.17 1769.56C2209.3 1773.84 2214.54 1775.54 2218.8 1773.33Z" fill="white"/>
<path d="M2127.69 1733.43C2128.06 1733.32 2128.46 1733.51 2128.6 1733.88L2143.76 1774.26C2144.05 1775.09 2143.6 1775.99 2142.77 1776.23C2128.6 1780.51 2116.92 1787.91 2107.69 1798.42C2107.13 1799.08 2106.04 1798.6 2106.12 1797.75C2107.95 1775.19 2114.79 1754.07 2126.63 1734.36C2126.92 1733.86 2127.27 1733.56 2127.69 1733.43Z" fill="white"/>
<path d="M1667.2 761.14C1673.11 767.099 1669.89 772.339 1662.84 775.664C1653.85 779.894 1646 787.847 1642.83 797.291C1641.42 801.494 1640.41 804.154 1639.78 805.298C1637.67 809.102 1633.76 811.07 1630.33 810.086C1624.67 808.437 1622.78 804.42 1624.61 798.009C1629.53 780.878 1643.87 758.187 1664.22 759.757C1665.37 759.837 1666.4 760.342 1667.2 761.14Z" fill="black"/>
<path d="M1408.13 965.089C1389.62 970.808 1368.82 968.92 1352.91 958.226C1349.9 956.204 1348.41 952.746 1349.18 949.607C1351.23 941.201 1357.99 942.797 1365.01 945.431C1378.34 950.379 1390.89 951.07 1402.68 947.426C1414.46 943.782 1424.46 936.147 1432.68 924.496C1436.99 918.378 1441.65 913.244 1448.09 919.043C1450.51 921.197 1451.23 924.868 1449.89 928.247C1442.79 946.043 1426.67 959.343 1408.13 965.089Z" fill="black"/>
<path d="M710.043 1885.54C706 1883.62 704.111 1878.89 705.707 1874.71C712.889 1855.98 754.972 1739.55 776.04 1757.4C780.775 1761.39 778.807 1767.11 774.949 1771.55C770.613 1776.58 765.878 1783.95 760.771 1793.66C746.3 1821.24 732.867 1850.58 720.471 1881.68C718.901 1885.7 714.246 1887.53 710.336 1885.67L710.043 1885.54Z" fill="black"/>
<path d="M2319.88 1926.02C2321.88 1944.14 2322.99 1959.81 2323.23 1973C2323.34 1978.75 2321.11 1986.51 2314.11 1986.41C2310.89 1986.33 2308.52 1984.28 2307.01 1980.21C2306.85 1979.76 2306.74 1979.28 2306.69 1978.8C2304.88 1958.58 2303.23 1941.64 2301.74 1928.02C2300.22 1914.4 2298.15 1897.53 2295.52 1877.4C2295.46 1876.92 2295.46 1876.44 2295.52 1875.96C2296.1 1871.65 2297.96 1869.12 2301.08 1868.35C2307.88 1866.73 2311.77 1873.83 2312.91 1879.44C2315.57 1892.37 2317.89 1907.91 2319.88 1926.02Z" fill="black"/>
<path d="M1698.67 1990.53C1698.72 1976.88 1688.48 1965.78 1675.8 1965.74C1663.12 1965.69 1652.81 1976.72 1652.76 1990.37C1652.71 2004.02 1662.95 2015.12 1675.63 2015.16C1688.31 2015.21 1698.62 2004.18 1698.67 1990.53Z" fill="black"/>
<path d="M1733.02 2242.42C1730.84 2228.84 1718.98 2219.45 1706.51 2221.45C1694.05 2223.44 1685.72 2236.07 1687.89 2249.65C1690.07 2263.23 1701.93 2272.61 1714.39 2270.62C1726.85 2268.62 1735.19 2256 1733.02 2242.42Z" fill="black"/>
<path d="M819.943 354.746C873.692 372.099 900.293 438.788 879.328 503.662C858.37 568.548 797.8 607.066 744.054 589.705C690.305 572.352 663.704 505.663 684.669 440.789C705.627 375.903 766.198 337.385 819.943 354.746Z" fill="#6DAEFE"/>
<path d="M2155.39 375.334C2202.18 406.415 2209.46 477.706 2171.67 534.595C2133.89 591.478 2065.31 612.387 2018.54 581.301C1971.76 550.22 1964.47 478.93 2002.26 422.04C2040.04 365.157 2108.62 344.249 2155.39 375.334Z" fill="#6DAEFE"/>
<path d="M886.863 390.349C886.676 389.976 886.756 389.551 887.102 389.285C887.421 389.045 887.873 389.072 888.166 389.364C893.087 394.179 897.21 399.021 900.509 403.835C922.535 435.996 927.988 471.375 916.895 509.973C904.845 551.896 879.015 581.264 839.46 598.076C830.814 601.773 822.834 604.008 815.519 604.779C814.987 604.832 814.508 604.513 814.375 604.008C814.242 603.502 814.508 602.97 814.987 602.758C835.523 593.846 854.808 578.684 869.2 559.983C893.486 528.355 904.818 491.698 903.169 449.962C902.318 428.867 896.891 408.996 886.863 390.349Z" fill="#6DAEFE"/>
<path d="M2202.43 556.604C2175.73 596.08 2132.55 619.33 2084.83 613.531C2084.41 613.477 2084.09 613.105 2084.06 612.679C2084.06 612.227 2084.38 611.855 2084.83 611.801C2126.2 605.763 2162.64 579.694 2185.84 545.379C2209.03 511.063 2219.62 467.518 2209.8 426.871C2209.7 426.446 2209.91 426.02 2210.34 425.861C2210.73 425.701 2211.19 425.861 2211.4 426.26C2234.6 468.369 2229.12 517.102 2202.43 556.604Z" fill="#6DAEFE"/>
<path d="M582.704 874.645C590.977 882.838 602.122 889.595 616.168 894.942C617.125 895.288 617.179 896.618 616.247 897.043C588.955 909.838 571.185 930.002 562.939 957.561C562.62 958.625 561.13 958.651 560.758 957.614C555.517 942.957 548.096 930.853 538.493 921.303C530.246 913.11 519.074 906.354 505.029 901.033C504.071 900.661 504.045 899.331 504.949 898.905C532.242 886.11 550.011 865.947 558.257 838.388C558.577 837.324 560.066 837.298 560.439 838.335C565.679 852.992 573.101 865.096 582.704 874.645Z" fill="#6DAEFE"/>
<path d="M916.042 1531.66C915.776 1531.77 915.484 1531.66 915.324 1531.42C915.191 1531.16 915.271 1530.84 915.51 1530.68C919.208 1528.1 924.661 1524.69 931.817 1520.44C941.26 1514.85 951.98 1506.37 964.03 1494.98C970.202 1489.13 974.192 1483.14 976.027 1477.02C982.864 1454.15 968.18 1433.83 943.627 1436.7C936.445 1437.52 929.742 1438.96 923.49 1440.98C891.489 1451.3 862.069 1465.59 835.228 1483.86C834.51 1484.34 833.552 1484.02 833.286 1483.2C816.634 1431.7 801.738 1386.05 769.63 1287.65C762.421 1265.57 776.547 1243.79 799.876 1242.96C861.883 1240.81 923.889 1236.9 993.956 1234.08C1015.48 1233.2 1031.28 1248.26 1038.11 1269.11C1043.35 1285.05 1074.24 1382.99 1130.77 1563C1152.18 1631.15 1164.58 1671.48 1167.9 1684.01C1171.01 1695.69 1165.32 1711.3 1154.31 1718.14C1147.74 1722.21 1140.63 1724.47 1132.95 1724.89C1110.84 1726.14 1062.64 1729.12 988.397 1733.8C987.519 1733.86 987.093 1732.77 987.758 1732.18C1006.57 1716.01 1023.22 1700.93 1037.72 1686.93C1041.12 1683.66 1045.38 1678.18 1050.51 1670.55C1060.83 1655.23 1061.9 1636.82 1045.62 1625.25C1045.14 1624.9 1045.14 1624.16 1045.62 1623.81C1068.89 1606.68 1082.38 1574.73 1050.59 1556.77C1049.92 1556.4 1049.74 1555.5 1050.24 1554.91C1058.7 1544.8 1061.63 1530.63 1054.34 1519.13C1039.98 1496.44 1005.42 1503.97 984.486 1509.98C974.777 1512.78 965.919 1515.17 957.912 1517.17C941.34 1521.26 928.518 1526.21 916.042 1531.66Z" fill="#6DAEFE"/>
<path d="M2031.53 1435.29C2044.59 1441.57 2059.59 1443.08 2076.51 1439.84C2080.02 1439.17 2082.33 1435.82 2081.72 1432.31L2081.69 1432.07C2081.08 1428.42 2077.7 1425.9 2074.03 1426.35C2058.58 1428.24 2044.93 1425.61 2033.09 1418.45C2032.32 1418 2031.84 1417.15 2031.84 1416.24V1390.44C2031.84 1389.32 2033.04 1388.63 2034 1389.19C2045.3 1395.81 2057.99 1398.34 2072.01 1396.82C2092.42 1394.61 2111.99 1392.75 2133.17 1389.72C2176.26 1383.52 2251.57 1372.72 2359.06 1357.35C2369.94 1355.78 2398.89 1351.84 2445.92 1345.54C2458.15 1343.89 2466.66 1344.29 2471.43 1346.71C2480.5 1351.31 2484.67 1359.93 2483.95 1372.59C2482.92 1391.48 2480.68 1419.81 2477.25 1457.55C2477.17 1458.59 2476.35 1459.39 2475.31 1459.47C2456.5 1460.88 2432.22 1463.03 2402.48 1465.93C2359.54 1470.11 2344.91 1506.29 2349.75 1544.62C2353.32 1572.84 2374.09 1586.35 2400.64 1586.62C2426.36 1586.89 2447.33 1586.83 2463.5 1586.46C2464.24 1586.43 2464.86 1587.05 2464.83 1587.79C2464.32 1605.59 2463.13 1622.98 2461.26 1639.98C2459.43 1656.85 2453.79 1672.73 2435.01 1676.19C2426.04 1677.84 2413.44 1679.72 2397.18 1681.83C2395.37 1682.07 2393.75 1680.74 2393.62 1678.93C2392.26 1660.81 2387.31 1644.13 2378.83 1628.89C2360.23 1595.45 2334.91 1568.29 2302.91 1547.41C2286.36 1536.61 2265.11 1529.54 2252.07 1548.66C2245.88 1557.73 2244.49 1567.49 2247.9 1577.95C2248.16 1578.83 2247.15 1579.52 2246.46 1578.93C2229.12 1564.6 2196.21 1542.78 2176.47 1567.36C2168.89 1576.81 2169.29 1592.23 2173.44 1603.38C2173.79 1604.28 2173.02 1605.24 2172.06 1605.11C2157.27 1603.14 2146.1 1610.99 2141.57 1625.59C2136.84 1640.81 2142.19 1652.43 2147.32 1666.98C2147.59 1667.78 2147.13 1668.63 2146.31 1668.84C2124.26 1674.16 2120.8 1691.93 2123.59 1712.63C2123.7 1713.48 2123.11 1714.25 2122.26 1714.39C2097.76 1717.95 2073.48 1719.76 2049.43 1719.81C2044.77 1719.81 2038.89 1718.48 2031.84 1715.85C2016.63 1710.16 2013.36 1695.71 2014.23 1681.03C2019.37 1596.81 2024.61 1515.2 2029.96 1436.19C2030.01 1435.42 2030.83 1434.94 2031.53 1435.29Z" fill="#6DAEFE"/>
<path d="M2098.93 1374.93C2099.04 1375.94 2098.3 1376.87 2097.28 1376.98L2085.29 1378.34C2064.35 1380.68 2047.14 1380.6 2046.88 1378.12L2046.56 1375.41C2046.29 1372.96 2063.05 1369.05 2083.98 1366.71L2095.98 1365.35C2096.99 1365.25 2097.92 1365.97 2098.03 1367L2098.93 1374.93Z" fill="#6DAEFE"/>
<path d="M2493.69 1475.3C2503.13 1474.55 2507.18 1485.06 2506.72 1493.46C2505.79 1510.41 2504.14 1529.69 2501.83 1551.32C2501.27 1556.51 2498.42 1560.95 2493.32 1564.59C2490.5 1566.59 2485.31 1567.81 2477.78 1568.24C2451.26 1569.7 2425.09 1570.31 2399.26 1570.07C2369.38 1569.78 2362.04 1543.95 2365.79 1519.43C2368.03 1504.74 2375.08 1493.97 2386.91 1487.08C2397.55 1480.91 2411.94 1481.01 2425.19 1480.51C2442.27 1479.84 2458.82 1478.06 2493.69 1475.3Z" fill="#6DAEFE"/>
<path d="M786.416 518.193V533.436C786.416 536.947 783.543 539.74 780.031 539.66L778.276 539.607C774.259 539.501 771.067 536.202 771.067 532.159V520.162C771.067 518.486 769.817 517.103 768.167 516.916C762.102 516.251 743.694 510.984 750.238 500.903C753.776 495.476 758.857 496.514 764.869 498.934C769.604 500.823 774.153 501.648 778.542 501.435C786.416 501.036 793.678 492.231 789.368 484.836C785.937 478.983 771.732 474.328 767.29 471.376C747.365 458.181 749.786 434.347 771.971 425.17C773.248 424.638 774.073 423.387 774.073 422.004V408.065C774.073 404.208 777.132 401.043 780.989 400.936L782.08 400.91C786.07 400.777 789.395 403.995 789.395 408.012V420.967C789.395 422.19 790.246 423.228 791.443 423.467C795.247 424.185 798.226 425.037 800.434 426.021C803.866 427.511 806.127 430.543 806.313 433.842C806.526 438.018 804.504 441.05 800.275 442.913C799.424 443.285 798.439 443.312 797.562 442.992C792.853 441.183 789.794 440.119 788.411 439.827C782.825 438.577 774.552 440.119 771.838 446.158C767.715 455.415 782.452 460.709 790.166 463.821C814.187 473.477 813.708 506.037 788.836 514.762C787.373 515.267 786.416 516.65 786.416 518.193Z" fill="black"/>
<path d="M2093.22 430.436C2094.33 430.409 2095.34 429.717 2095.72 428.653L2100.53 414.954C2101.78 411.443 2105.61 409.58 2109.15 410.778L2110.08 411.097C2113.72 412.347 2115.67 416.337 2114.39 419.981L2110.32 431.579C2109.79 433.069 2110.43 434.718 2111.84 435.437C2117.79 438.496 2127.24 447.992 2118.59 454.217C2116.04 456.052 2112.69 456.052 2110.35 454.217C2104.15 449.322 2091.27 441.262 2085.02 450.706C2081.8 455.547 2083.43 459.644 2087.5 463.687C2094.49 470.63 2099.2 475.923 2101.62 479.514C2114.63 498.8 2101.78 521.012 2079.22 521.73C2077.71 521.783 2076.38 522.794 2075.92 524.231C2073.58 531.679 2071.08 543.889 2062.78 542.08C2051.98 539.712 2057.54 528.78 2059.75 520.746C2060.1 519.496 2059.59 518.166 2058.47 517.474C2051.37 513.005 2037.35 499.997 2053.29 494.039C2054.16 493.693 2055.15 493.826 2055.95 494.331C2062.33 498.375 2067.25 504.493 2077.1 505.397C2083.96 506.062 2090.63 501.008 2089.38 493.799C2087.02 479.967 2067.55 474.327 2066.67 456.159C2065.87 439.32 2077.71 430.648 2093.22 430.436Z" fill="black"/>
<path d="M1434.15 677.959C1425.77 678.73 1416.62 681.949 1407.95 685.7C1404.54 687.19 1400.71 686.525 1398.37 684.077C1394.99 680.539 1395.53 676.656 1399.97 672.426C1407.28 665.51 1421.81 661.679 1432.55 660.668C1443.33 659.684 1458.3 660.801 1466.76 666.308C1471.9 669.633 1473.12 673.357 1470.43 677.454C1468.6 680.3 1464.95 681.63 1461.31 680.805C1452.11 678.677 1442.53 677.188 1434.15 677.959Z" fill="black"/>
<path d="M1460.26 790.143C1457.37 776.866 1448.15 767.599 1439.68 769.445C1431.22 771.292 1426.7 783.552 1429.59 796.83C1432.49 810.108 1441.7 819.374 1450.17 817.528C1458.64 815.681 1463.16 803.421 1460.26 790.143Z" fill="black"/>
<path d="M1290.46 815.32C1287.61 801.913 1278.51 792.487 1270.13 794.268C1261.75 796.049 1257.27 808.361 1260.12 821.769C1262.97 835.176 1272.07 844.602 1280.45 842.821C1288.83 841.04 1293.31 828.728 1290.46 815.32Z" fill="black"/>
<path d="M848.721 1304.81C842.268 1291.92 828.304 1285.85 817.532 1291.24C806.761 1296.63 803.26 1311.45 809.713 1324.34C816.166 1337.23 830.13 1343.3 840.901 1337.91C851.673 1332.51 855.174 1317.69 848.721 1304.81Z" fill="black"/>
<path d="M2441.87 1375.06L2416.83 1378.84C2413.3 1379.38 2410.87 1382.67 2411.41 1386.2L2411.49 1386.73C2412.02 1390.26 2415.31 1392.68 2418.84 1392.15L2443.88 1388.36C2447.41 1387.83 2449.84 1384.54 2449.31 1381.01L2449.23 1380.48C2448.7 1376.95 2445.4 1374.52 2441.87 1375.06Z" fill="black"/>
<path d="M2378.59 1384.4L2350.54 1388.54C2346.96 1389.07 2344.49 1392.39 2345.02 1395.97L2345.09 1396.44C2345.62 1400.02 2348.94 1402.49 2352.52 1401.96L2380.57 1397.82C2384.15 1397.29 2386.62 1393.96 2386.09 1390.39L2386.02 1389.92C2385.49 1386.34 2382.17 1383.87 2378.59 1384.4Z" fill="black"/>
<path d="M2311 1393.69L2285.34 1397.62C2281.71 1398.17 2279.21 1401.57 2279.77 1405.2L2279.85 1405.72C2280.41 1409.35 2283.8 1411.85 2287.43 1411.29L2313.09 1407.36C2316.72 1406.81 2319.22 1403.41 2318.66 1399.78L2318.58 1399.26C2318.03 1395.63 2314.63 1393.13 2311 1393.69Z" fill="black"/>
<path d="M2251.93 1415.78C2256.93 1414.71 2260.38 1411.05 2259.64 1407.6C2258.9 1404.15 2254.25 1402.22 2249.25 1403.3C2244.25 1404.37 2240.8 1408.03 2241.54 1411.48C2242.28 1414.93 2246.93 1416.85 2251.93 1415.78Z" fill="black"/>
<path d="M2209.61 1408.14L2182.23 1412.09C2178.58 1412.61 2176.05 1416 2176.57 1419.65L2176.64 1420.12C2177.17 1423.77 2180.55 1426.3 2184.2 1425.78L2211.59 1421.83C2215.24 1421.31 2217.77 1417.92 2217.24 1414.27L2217.17 1413.8C2216.65 1410.15 2213.26 1407.62 2209.61 1408.14Z" fill="black"/>
<path d="M2142.8 1417.51L2115.06 1421.61C2111.46 1422.14 2108.97 1425.49 2109.5 1429.1L2109.57 1429.57C2110.1 1433.18 2113.45 1435.67 2117.06 1435.14L2144.79 1431.04C2148.4 1430.51 2150.89 1427.15 2150.36 1423.55L2150.29 1423.08C2149.75 1419.47 2146.4 1416.98 2142.8 1417.51Z" fill="black"/>
<path d="M2421.7 1532.38C2425.32 1521.17 2420.22 1509.48 2410.31 1506.28C2400.4 1503.08 2389.43 1509.57 2385.81 1520.79C2382.19 1532 2387.29 1543.68 2397.2 1546.88C2407.11 1550.09 2418.08 1543.59 2421.7 1532.38Z" fill="black"/>
</svg>
